# xmcd
#
# Track frame offsets:
#	150
#	10964
#	22405
#	36601
#	49094
#	65192
#	79414
#	89473
#	105577
#	120886
#	136049
#
# Disc length: 1995 seconds
#
# Revision: 1
# Processed by: cddbd v1.5.2PL0 Copyright (c) Steve Scherf et al.
# Submitted via: audiograbber 1.83.01
#
DISCID=9707c90b
DTITLE=Kelly Butler - Dirt Roads Kelly Butler
DYEAR=1900
DGENRE=
TTITLE0=Hi Tech Lover
TTITLE1=We Ain´t Rich
TTITLE2=They Call It Country Music
TTITLE3=Chace Them Blues Away
TTITLE4=Another Hearts Been Broken
TTITLE5=What The Working People Do
TTITLE6=Genuine Truck Drivin Man
TTITLE7=A Little Time With You
TTITLE8=Dirt Roads
TTITLE9=Someday
TTITLE10=Looking For A Woman
EXTD=
EXTT0=
EXTT1=
EXTT2=
EXTT3=
EXTT4=
EXTT5=
EXTT6=
EXTT7=
EXTT8=
EXTT9=
EXTT10=
PLAYORDER=
